<svg width="128" height="40" viewBox="0 0 128 40" fill="none" xmlns="http://www.w3.org/2000/svg">
<path d="M34.6939 37.7118C34.1429 37.7118 33.6484 37.5925 33.2105 37.3537C32.7796 37.1079 32.4405 36.7743 32.1933 36.353C31.9461 35.9246 31.8224 35.4366 31.8224 34.8888C31.8224 34.334 31.9461 33.846 32.1933 33.4246C32.4405 33.0033 32.7796 32.6732 33.2105 32.4345C33.6484 32.1957 34.1429 32.0763 34.6939 32.0763C35.1671 32.0763 35.5945 32.1676 35.976 32.3502C36.3574 32.5328 36.6576 32.8066 36.8766 33.1718L36.315 33.551C36.1243 33.2701 35.8877 33.063 35.6051 32.9295C35.3226 32.7961 35.0153 32.7294 34.6833 32.7294C34.2877 32.7294 33.931 32.8207 33.6131 33.0033C33.2952 33.1788 33.0445 33.4281 32.8608 33.7512C32.6772 34.0742 32.5853 34.4534 32.5853 34.8888C32.5853 35.3242 32.6772 35.7034 32.8608 36.0265C33.0445 36.3495 33.2952 36.6023 33.6131 36.7849C33.931 36.9604 34.2877 37.0482 34.6833 37.0482C35.0153 37.0482 35.3226 36.9815 35.6051 36.8481C35.8877 36.7147 36.1243 36.511 36.315 36.2371L36.8766 36.6163C36.6576 36.9745 36.3574 37.2484 35.976 37.438C35.5945 37.6206 35.1671 37.7118 34.6939 37.7118Z" fill="white" fill-opacity="0.95"/>
<path d="M40.5288 37.7118C39.9919 37.7118 39.5081 37.5925 39.0772 37.3537C38.6534 37.1079 38.3178 36.7743 38.0706 36.353C37.8234 35.9246 37.6997 35.4366 37.6997 34.8888C37.6997 34.334 37.8234 33.846 38.0706 33.4246C38.3178 33.0033 38.6534 32.6732 39.0772 32.4345C39.501 32.1957 39.9849 32.0763 40.5288 32.0763C41.0798 32.0763 41.5672 32.1957 41.991 32.4345C42.4219 32.6732 42.7574 33.0033 42.9976 33.4246C43.2448 33.846 43.3684 34.334 43.3684 34.8888C43.3684 35.4366 43.2448 35.9246 42.9976 36.353C42.7574 36.7743 42.4219 37.1079 41.991 37.3537C41.5601 37.5925 41.0727 37.7118 40.5288 37.7118ZM40.5288 37.0482C40.9314 37.0482 41.2882 36.9604 41.599 36.7849C41.9098 36.6023 42.1535 36.3495 42.3301 36.0265C42.5137 35.6964 42.6056 35.3172 42.6056 34.8888C42.6056 34.4534 42.5137 34.0742 42.3301 33.7512C42.1535 33.4281 41.9098 33.1788 41.599 33.0033C41.2882 32.8207 40.935 32.7294 40.5394 32.7294C40.1438 32.7294 39.7906 32.8207 39.4798 33.0033C39.169 33.1788 38.9218 33.4281 38.7381 33.7512C38.5545 34.0742 38.4626 34.4534 38.4626 34.8888C38.4626 35.3172 38.5545 35.6964 38.7381 36.0265C38.9218 36.3495 39.169 36.6023 39.4798 36.7849C39.7906 36.9604 40.1403 37.0482 40.5288 37.0482Z" fill="white" fill-opacity="0.95"/>
<path d="M51.8551 32.0763C52.3072 32.0763 52.6992 32.1641 53.0312 32.3397C53.3703 32.5082 53.6317 32.768 53.8153 33.1191C54.006 33.4703 54.1014 33.9127 54.1014 34.4464V37.6592H53.3491V34.5201C53.3491 33.9373 53.2078 33.4984 52.9253 33.2034C52.6498 32.9015 52.2577 32.7505 51.7492 32.7505C51.3677 32.7505 51.0357 32.8312 50.7532 32.9927C50.4777 33.1472 50.2622 33.3755 50.1068 33.6774C49.9585 33.9724 49.8843 34.3305 49.8843 34.7519V37.6592H49.132V34.5201C49.132 33.9373 48.9907 33.4984 48.7082 33.2034C48.4256 32.9015 48.0301 32.7505 47.5215 32.7505C47.1471 32.7505 46.8186 32.8312 46.5361 32.9927C46.2535 33.1472 46.0345 33.3755 45.8791 33.6774C45.7308 33.9724 45.6566 34.3305 45.6566 34.7519V37.6592H44.9043V32.129H45.6248V33.6248L45.5083 33.3614C45.6778 32.9611 45.9498 32.6486 46.3242 32.4239C46.7056 32.1922 47.1541 32.0763 47.6698 32.0763C48.2137 32.0763 48.6764 32.2132 49.0578 32.4871C49.4393 32.754 49.6865 33.1578 49.7995 33.6985L49.5029 33.5826C49.6653 33.1332 49.9514 32.7715 50.3611 32.4977C50.7779 32.2168 51.2759 32.0763 51.8551 32.0763Z" fill="white" fill-opacity="0.95"/>
<path d="M59.013 37.7118C58.5327 37.7118 58.0982 37.603 57.7097 37.3853C57.3212 37.1606 57.0104 36.8411 56.7773 36.4267C56.5513 36.0054 56.4382 35.4927 56.4382 34.8888C56.4382 34.2849 56.5513 33.7757 56.7773 33.3614C57.0034 32.9401 57.3106 32.6206 57.6991 32.4029C58.0877 32.1852 58.5256 32.0763 59.013 32.0763C59.5428 32.0763 60.0161 32.1957 60.4328 32.4345C60.8567 32.6662 61.1887 32.9963 61.4288 33.4246C61.669 33.846 61.7891 34.334 61.7891 34.8888C61.7891 35.4506 61.669 35.9422 61.4288 36.3635C61.1887 36.7849 60.8567 37.1149 60.4328 37.3537C60.0161 37.5925 59.5428 37.7118 59.013 37.7118ZM56.1416 39.7027V32.129H56.8621V33.7933L56.7879 34.8993L56.8939 36.0159V39.7027H56.1416ZM58.96 37.0482C59.3556 37.0482 59.7088 36.9604 60.0196 36.7849C60.3304 36.6023 60.5776 36.3495 60.7613 36.0265C60.945 35.6964 61.0368 35.3172 61.0368 34.8888C61.0368 34.4604 60.945 34.0847 60.7613 33.7617C60.5776 33.4387 60.3304 33.1859 60.0196 33.0033C59.7088 32.8207 59.3556 32.7294 58.96 32.7294C58.5645 32.7294 58.2077 32.8207 57.8899 33.0033C57.5791 33.1859 57.3318 33.4387 57.1482 33.7617C56.9716 34.0847 56.8833 34.4604 56.8833 34.8888C56.8833 35.3172 56.9716 35.6964 57.1482 36.0265C57.3318 36.3495 57.5791 36.6023 57.8899 36.7849C58.2077 36.9604 58.5645 37.0482 58.96 37.0482Z" fill="white" fill-opacity="0.95"/>
<path d="M66.7776 37.6592V36.4373L66.7458 36.2371V34.1936C66.7458 33.7231 66.6116 33.3614 66.3432 33.1086C66.0818 32.8558 65.6898 32.7294 65.167 32.7294C64.8068 32.7294 64.4642 32.7891 64.1393 32.9085C63.8143 33.0279 63.5388 33.1859 63.3128 33.3825L62.9737 32.8242C63.2563 32.5854 63.5953 32.4029 63.9909 32.2765C64.3865 32.143 64.8033 32.0763 65.2412 32.0763C65.9617 32.0763 66.5162 32.2554 66.9047 32.6135C67.3003 32.9647 67.4981 33.5019 67.4981 34.2252V37.6592H66.7776ZM64.8598 37.7118C64.443 37.7118 64.0792 37.6451 63.7684 37.5117C63.4647 37.3713 63.2316 37.1816 63.0691 36.9429C62.9066 36.6971 62.8254 36.4162 62.8254 36.1002C62.8254 35.8123 62.8925 35.5524 63.0267 35.3207C63.168 35.0819 63.394 34.8923 63.7048 34.7519C64.0227 34.6044 64.4465 34.5307 64.9763 34.5307H66.8941V35.089H64.9975C64.4607 35.089 64.0863 35.1838 63.8744 35.3734C63.6695 35.563 63.5671 35.7982 63.5671 36.0791C63.5671 36.3951 63.6907 36.6479 63.9379 36.8375C64.1852 37.0272 64.5313 37.122 64.9763 37.122C65.4001 37.122 65.7639 37.0272 66.0677 36.8375C66.3785 36.6409 66.6045 36.36 66.7458 35.9949L66.9153 36.511C66.7741 36.8762 66.5268 37.1676 66.1736 37.3853C65.8275 37.603 65.3896 37.7118 64.8598 37.7118Z" fill="white" fill-opacity="0.95"/>
<path d="M72.3811 32.0763C72.8331 32.0763 73.2287 32.1641 73.5678 32.3397C73.9139 32.5082 74.1823 32.768 74.3731 33.1191C74.5708 33.4703 74.6697 33.9127 74.6697 34.4464V37.6592H73.9174V34.5201C73.9174 33.9373 73.7691 33.4984 73.4724 33.2034C73.1828 32.9015 72.7731 32.7505 72.2433 32.7505C71.8477 32.7505 71.5016 32.8312 71.2049 32.9927C70.9153 33.1472 70.6893 33.3755 70.5268 33.6774C70.3714 33.9724 70.2937 34.3305 70.2937 34.7519V37.6592H69.5414V32.129H70.2619V33.6458L70.1454 33.3614C70.322 32.9611 70.6045 32.6486 70.993 32.4239C71.3815 32.1922 71.8442 32.0763 72.3811 32.0763Z" fill="white" fill-opacity="0.95"/>
<path d="M76.6407 39.7554C76.3793 39.7554 76.1286 39.7132 75.8884 39.629C75.6553 39.5447 75.454 39.4183 75.2844 39.2498L75.6341 38.6915C75.7754 38.8249 75.9273 38.9267 76.0897 38.997C76.2593 39.0742 76.4464 39.1128 76.6513 39.1128C76.8985 39.1128 77.1105 39.0426 77.287 38.9021C77.4707 38.7687 77.6438 38.53 77.8062 38.1859L78.1665 37.3748L78.2513 37.2589L80.5399 32.129H81.2816L78.495 38.3228C78.3396 38.6809 78.1665 38.9654 77.9758 39.176C77.7921 39.3867 77.5908 39.5342 77.3718 39.6184C77.1528 39.7097 76.9091 39.7554 76.6407 39.7554ZM78.1241 37.8172L75.5599 32.129H76.344L78.6115 37.2062L78.1241 37.8172Z" fill="white" fill-opacity="0.95"/>
<path d="M33.5601 25.9551V11.2079H35.6793V24.1222H43.7108V25.9551H33.5601Z" fill="white" fill-opacity="0.95"/>
<path d="M46.1425 25.9551V11.2079H48.2617V25.9551H46.1425Z" fill="white" fill-opacity="0.95"/>
<path d="M52.7028 25.9551V11.2079H58.488C59.7878 11.2079 60.8968 11.4115 61.8151 11.8188C62.7334 12.2261 63.4398 12.816 63.9342 13.5885C64.4287 14.361 64.6759 15.2809 64.6759 16.3483C64.6759 17.4157 64.4287 18.3357 63.9342 19.1081C63.4398 19.8666 62.7334 20.4565 61.8151 20.8778C60.8968 21.2851 59.7878 21.4888 58.488 21.4888H53.8683L54.8219 20.4986V25.9551H52.7028ZM54.8219 20.7093L53.8683 19.6559H58.4244C59.7807 19.6559 60.805 19.368 61.4972 18.7921C62.2036 18.2163 62.5568 17.4017 62.5568 16.3483C62.5568 15.2949 62.2036 14.4803 61.4972 13.9045C60.805 13.3287 59.7807 13.0407 58.4244 13.0407H53.8683L54.8219 11.9874V20.7093Z" fill="white" fill-opacity="0.95"/>
<path d="M74.6927 26.1236C73.5625 26.1236 72.5099 25.934 71.5351 25.5548C70.5745 25.1756 69.7409 24.6489 69.0346 23.9747C68.3282 23.2865 67.7772 22.486 67.3816 21.573C66.9861 20.6601 66.7883 19.6629 66.7883 18.5815C66.7883 17.5 66.9861 16.5028 67.3816 15.5899C67.7772 14.677 68.3282 13.8834 69.0346 13.2093C69.7409 12.5211 70.5745 11.9874 71.5351 11.6081C72.4958 11.2289 73.5483 11.0393 74.6927 11.0393C75.8229 11.0393 76.8613 11.2289 77.8078 11.6081C78.7685 11.9733 79.602 12.5 80.3084 13.1882C81.0289 13.8624 81.5799 14.6559 81.9613 15.5688C82.3569 16.4817 82.5547 17.486 82.5547 18.5815C82.5547 19.677 82.3569 20.6812 81.9613 21.5941C81.5799 22.507 81.0289 23.3076 80.3084 23.9958C79.602 24.6699 78.7685 25.1966 77.8078 25.5758C76.8613 25.941 75.8229 26.1236 74.6927 26.1236ZM74.6927 24.2486C75.5121 24.2486 76.2679 24.1081 76.9602 23.8272C77.6665 23.5463 78.274 23.1531 78.7826 22.6475C79.3053 22.1278 79.708 21.5239 79.9905 20.8357C80.2872 20.1475 80.4355 19.3961 80.4355 18.5815C80.4355 17.7669 80.2872 17.0154 79.9905 16.3272C79.708 15.639 79.3053 15.0421 78.7826 14.5365C78.274 14.0169 77.6665 13.6166 76.9602 13.3357C76.2679 13.0548 75.5121 12.9143 74.6927 12.9143C73.8591 12.9143 73.0892 13.0548 72.3828 13.3357C71.6905 13.6166 71.0831 14.0169 70.5603 14.5365C70.0376 15.0421 69.6279 15.639 69.3312 16.3272C69.0487 17.0154 68.9074 17.7669 68.9074 18.5815C68.9074 19.3961 69.0487 20.1475 69.3312 20.8357C69.6279 21.5239 70.0376 22.1278 70.5603 22.6475C71.0831 23.1531 71.6905 23.5463 72.3828 23.8272C73.0892 24.1081 73.8591 24.2486 74.6927 24.2486Z" fill="white" fill-opacity="0.95"/>
<path d="M85.7936 25.9551V11.2079H92.0451C93.6274 11.2079 95.019 11.5169 96.2198 12.1348C97.4348 12.7528 98.3743 13.6166 99.0383 14.7261C99.7164 15.8357 100.055 17.1208 100.055 18.5815C100.055 20.0421 99.7164 21.3272 99.0383 22.4368C98.3743 23.5463 97.4348 24.4101 96.2198 25.0281C95.019 25.6461 93.6274 25.9551 92.0451 25.9551H85.7936ZM87.9128 24.1222H91.918C93.1471 24.1222 94.2066 23.8904 95.0967 23.427C96.0008 22.9635 96.7002 22.3174 97.1946 21.4888C97.6891 20.6461 97.9363 19.677 97.9363 18.5815C97.9363 17.4719 97.6891 16.5028 97.1946 15.6742C96.7002 14.8455 96.0008 14.1994 95.0967 13.736C94.2066 13.2725 93.1471 13.0407 91.918 13.0407H87.9128V24.1222Z" fill="white" fill-opacity="0.95"/>
<path d="M100.848 25.9551L107.566 11.2079H109.664L116.403 25.9551H114.178L108.18 12.3876H109.028L103.031 25.9551H100.848ZM103.709 22.2683L104.281 20.5829H112.631L113.245 22.2683H103.709Z" fill="white" fill-opacity="0.95"/>
<path d="M120.816 25.9551V13.0407H115.73V11.2079H128V13.0407H122.914V25.9551H120.816Z" fill="white" fill-opacity="0.95"/>
<path d="M0 0.674155H1.13021V38.9326H24.6951V40H0V0.674155Z" fill="white" fill-opacity="0.95"/>
<path d="M23.7061 10.9551H24.8363V40H23.7061V10.9551ZM24.2712 2.92135C23.8568 2.92135 23.4989 2.77153 23.1975 2.47191C22.9338 2.17228 22.802 1.8352 22.802 1.46067C22.802 1.04869 22.9338 0.711609 23.1975 0.449436C23.4989 0.149812 23.8568 0 24.2712 0C24.648 0 24.987 0.149812 25.2884 0.449436C25.5898 0.711609 25.7405 1.04869 25.7405 1.46067C25.7405 1.8352 25.5898 2.17228 25.2884 2.47191C24.987 2.77153 24.648 2.92135 24.2712 2.92135Z" fill="white" fill-opacity="0.95"/>
</svg>
